<svg width="30" height="35" viewBox="0 0 30 35" fill="none" xmlns="http://www.w3.org/2000/svg">
<path d="M19.9029 16.2857C19.9029 17.3314 19.1314 18.1886 18.1543 18.1886C17.1943 18.1886 16.4057 17.3314 16.4057 16.2857C16.4057 15.24 17.1771 14.3829 18.1543 14.3829C19.1314 14.3829 19.9029 15.24 19.9029 16.2857ZM11.8971 14.3829C10.92 14.3829 10.1486 15.24 10.1486 16.2857C10.1486 17.3314 10.9371 18.1886 11.8971 18.1886C12.8743 18.1886 13.6457 17.3314 13.6457 16.2857C13.6629 15.24 12.8743 14.3829 11.8971 14.3829ZM30 3.53143V34.2857C25.6812 30.4692 27.0624 31.7325 22.0457 27.0686L22.9543 30.24H3.51429C1.57714 30.24 0 28.6629 0 26.7086V3.53143C0 1.57714 1.57714 0 3.51429 0H26.4857C28.4229 0 30 1.57714 30 3.53143ZM25.1143 19.7829C25.1143 14.2629 22.6457 9.78857 22.6457 9.78857C20.1771 7.93714 17.8286 7.98857 17.8286 7.98857L17.5886 8.26286C20.5029 9.15429 21.8571 10.44 21.8571 10.44C17.785 8.20815 13.0015 8.20774 9.05143 9.94286C8.41714 10.2343 8.04 10.44 8.04 10.44C8.04 10.44 9.46286 9.08571 12.5486 8.19429L12.3771 7.98857C12.3771 7.98857 10.0286 7.93714 7.56 9.78857C7.56 9.78857 5.09143 14.2629 5.09143 19.7829C5.09143 19.7829 6.53143 22.2686 10.32 22.3886C10.32 22.3886 10.9543 21.6171 11.4686 20.9657C9.29143 20.3143 8.46857 18.9429 8.46857 18.9429C8.72076 19.1194 9.13661 19.3482 9.17143 19.3714C12.065 20.9918 16.1751 21.5227 19.8686 19.9714C20.4686 19.7486 21.1371 19.4229 21.84 18.96C21.84 18.96 20.9829 20.3657 18.7371 21C19.2514 21.6514 19.8686 22.3886 19.8686 22.3886C23.6571 22.2686 25.1143 19.7829 25.1143 19.7829Z" fill="#1D1D1D"/>
</svg>
