<svg width="30" height="25" viewBox="0 0 30 25" fill="none" xmlns="http://www.w3.org/2000/svg">
<path d="M26.9163 6.07233C26.9354 6.33881 26.9354 6.60536 26.9354 6.87184C26.9354 15 20.7488 24.3655 9.44166 24.3655C5.95813 24.3655 2.7221 23.3566 0 21.6054C0.494943 21.6625 0.970785 21.6815 1.48477 21.6815C4.3591 21.6815 7.00509 20.7107 9.11804 19.0546C6.41499 18.9975 4.14974 17.2272 3.36927 14.7906C3.75001 14.8477 4.1307 14.8858 4.53049 14.8858C5.0825 14.8858 5.63457 14.8096 6.1485 14.6764C3.33124 14.1053 1.21823 11.6307 1.21823 8.64214V8.56603C2.03673 9.02289 2.98859 9.30842 3.9974 9.34644C2.3413 8.24236 1.25631 6.35786 1.25631 4.22586C1.25631 3.08374 1.56083 2.03679 2.09386 1.12307C5.12053 4.85404 9.67006 7.29056 14.7715 7.5571C14.6764 7.10024 14.6193 6.6244 14.6193 6.1485C14.6193 2.76013 17.3604 0 20.7678 0C22.5381 0 24.137 0.742386 25.2602 1.94163C26.6497 1.67514 27.9822 1.16116 29.1625 0.456857C28.7055 1.88456 27.7348 3.0838 26.4594 3.84517C27.6967 3.71199 28.896 3.36927 30 2.89343C29.1626 4.11166 28.1156 5.19664 26.9163 6.07233Z" fill="#1D1D1D"/>
</svg>
